<svg id="Capa_1" data-name="Capa 1" xmlns="http://www.w3.org/2000/svg" viewBox="0 0 212.6 149.88"><defs><style>.cls-1{fill:#ffcc03;}</style></defs><path class="cls-1" d="M125.06,177v-5.31c.91-.43,1.13-1.36,1.45-2.15,1.64-4,3.17-8.05,4.84-12,3.5-8.3,7.06-16.58,10.6-24.86a3.65,3.65,0,0,1,3.59-2.62c1.53,0,2.33-.94,3-2.18,3.78-6.59,7.69-13.1,11.4-19.73,1.48-2.67,3.46-3.81,6.47-3.54,2.71.24,4.8,1.74,6.85,3.24,4.69,3.44,9.58,6.23,15.61,6.55,3.35.18,5,3.28,3.72,6.35a25.6,25.6,0,0,0-1.63,4.17c-1.06,4.46-.39,9.43-3.73,13.25a1.06,1.06,0,0,0-.22.48c-.18.7-.37,1.53.55,1.76s1-.55,1.17-1.15a9.9,9.9,0,0,1,4.5-5.69c4.56-2.53,9.19-4.93,13.81-7.33a2.66,2.66,0,0,1,3,.46q6.75,5.56,13.47,11.17a3.36,3.36,0,0,1,1,4c-1.26,3.85-2.28,7.78-3.4,11.68-.18.61-.3,1.25.33,1.68s1.18,0,1.65-.42c2.34-2,4.84-3.82,7.07-6,6.55-6.34,12.68-13.09,19.68-19a18.42,18.42,0,0,0,4-5.23c2.71-4.75,5-9.73,8.07-14.3,1-1.54,1.93-2.76,4-1.8.86.4,1.56-.19,2.11-.77,1.26-1.35,2.47-2.75,3.7-4.14H276a71.4,71.4,0,0,1,5.57,7.73,11.5,11.5,0,0,0,4.16,4c2.53,1.32,3.37,3.36,3.25,6.12-.28,6.2-1.94,12.17-2.86,18.27-.27,1.77-.64,3.46.07,5.19a11,11,0,0,1,.06,7.28c-.82,3-1.64,6-2.43,8.95-.23.85-.48,1.82.39,2.45s1.77-.09,2.38-.59a28,28,0,0,0,4.86-4.47c3.25-4.32,7.35-5.76,12.68-5.24,3.36.33,6.88.68,10.25-.46,4.74-1.61,6.91-.5,8.53,4.19,4.16,12.1,8.21,24.24,11.95,36.49.81,2.65.87,5.61,2.8,7.88v7.44c-.52.34-1,.9-1.56,1-2.92.34-4.77,2.32-7,3.94-3.83,2.79-8,5.3-13.14,4.76-1.4-.15-3-.51-4.18.3-3.52,2.46-7.69,3.56-11.33,5.75-3.06,1.85-4.29,1.34-5.36-2.1a26.18,26.18,0,0,1-1.18-8.1c0-1,.45-2.4-.72-2.89-1.34-.56-2.1.78-2.71,1.64-4.35,6.12-9.84,11.35-13.81,17.77-2.3,3.73-6.45,4.21-9.73,1.35a19.08,19.08,0,0,1-2.91-3.42c-4.84-6.75-9.4-13.77-17.16-17.71a5.5,5.5,0,0,1-2.69-3.5c-.63-2.17-1.76-1.79-2.76-.53-2.62,3.28-6,5.7-8.94,8.67-2.29,2.34-4.78,4.47-7.15,6.73-7.4,7-16,12.84-22,21.32a3,3,0,0,1-1.36,1.2c-4.32,1.29-6.05,4.88-7.79,8.5h-5.31c-1.19-2.15-3.36-3.05-5.34-4.18-3.31-1.88-3.86-3.75-2.26-7.24.56-1.25,1.77-2.17,2-3.75-5.53,3.22-6.23,3.34-8.92-.49-1.87-2.67-4-3.48-7.14-3.47-7.18,0-11.71-6.09-9.75-13,1.3-4.58,2.9-9.08,4.27-13.64,1.09-3.63,2.12-7.31,1.47-11.18-.12-.72-.28-1.45-1-1.77s-1.35.26-1.8.77c-.93,1.06-1.78,2.18-2.65,3.29-2.25,2.85-7.37,4.54-10.19-.23a25,25,0,0,0-3.66-4.84c-3.7-3.75-6.68-8.27-11.43-10.92C129.64,181.34,127,179.66,125.06,177Z" transform="translate(-125.06 -103.67)"/><path d="M194.16,200.58a40,40,0,0,0,1.55,8.77c.36,1.08.86,2.81,2,2.23s3.3-1.59,2.56-3.7c-1.73-5-.69-9.8.79-14.48,1.85-5.86,3.32-11.71,2.69-17.89-.14-1.29.27-1.52,1.46-1.81,1.92-.48,4.28-.54,5.51-2.23a87,87,0,0,0,5.6-9.14,2.65,2.65,0,0,0-.45-3.21c-.85-.82-1.72-.57-2.68-.12a26.76,26.76,0,0,1-3,1c-4.53,1.41-8.81,3.45-13.37,4.77a39.55,39.55,0,0,0-11.31,4.77c-2.25,1.52-4.44,3.11-4.81,6.19-.44,3.78,1.15,5.17,4.76,4,2-.65,4-1.3,6-1.86,2.8-.78,3.13-.55,3.09,2.5C194.51,187.11,195,193.84,194.16,200.58Z" transform="translate(-125.06 -103.67)"/><path d="M232.28,179.08c.22-1.25.45-2.75-1.09-3.35-1.33-.53-2.69.37-3.56,1.19-1.74,1.63-3.79,2.86-5.5,4.5-2.21,2.13-4.65,4-6.51,6.54-.82,1.11-1.18,2.11-.2,3,1.14,1,1.75-.4,2.26-1a15.1,15.1,0,0,1,3.44-3.24c.56-.36.7-1.59,1.86-.84a2,2,0,0,1,.85,2.52c-.75,2.4-1.62,4.76-2.43,7.15-.29.86-.47,1.82.4,2.42s1.47.11,2.3-.48c4.78-3.38,8.28-8.12,12.7-11.89,1.22-1.05,2.68-1.92,3.91-1.68,1.5.29.48,2.12.65,3.25a6.74,6.74,0,0,1-.51,3.11c-.74,2.16-1.38,4.36-2.08,6.54a1.85,1.85,0,0,0,.66,2.12.91.91,0,0,0,1.41,0c1.33-2,3.78-2.56,5.18-4.73,1.64-2.56,4.41-4.37,7.06-6.06a2.65,2.65,0,0,1,2.56-.25c2.13,1.13,4.57,1.75,5.88,4.22,1,1.93,5.15,2.63,7.05,1.5,1.36-.81,1.52-2.48.12-3.19-2.81-1.43-4.49-3.76-6-6.39-1.85-3.21-3.88-3.63-7.19-1.85a31.93,31.93,0,0,0-5.41,4.12c-.6.51-1.24,1.2-2.07.66s-.28-1.41-.07-2.15c.68-2.35,1.75-4.6,1.57-7.18-.21-3.08-2-4.26-4.55-2.57a31.55,31.55,0,0,0-6.22,5.17c-1.54,1.71-3.64,2.66-5.09,4.42a1.36,1.36,0,0,1-1.69.4,1.52,1.52,0,0,1-.32-1.94A7.1,7.1,0,0,0,232.28,179.08Z" transform="translate(-125.06 -103.67)"/><path d="M293.89,186.33a7.44,7.44,0,0,0-3.51,2c-2.16,1.82-4.16,3.82-6.34,5.62-1.06.87-2.42,1.42-1.09,3s2.52,1.4,3.71-.07c2.17-2.67,4.35-5.33,6.45-8.06C293.6,188.27,294.34,187.57,293.89,186.33Z" transform="translate(-125.06 -103.67)"/><path d="M158.61,148.67a1.14,1.14,0,0,0,1.43-.79c2.94-6.68,5.87-13.36,8.72-20.09.3-.71,1.29-1.92-.17-2.45-1.22-.45-1.63.71-2,1.63q-2.54,6.79-5,13.59C160.58,143.25,159.6,145.94,158.61,148.67Z" transform="translate(-125.06 -103.67)"/><path d="M167.43,176.3a5,5,0,0,0-3.54,1.8c-2.33,2.51-4.64,5.05-7,7.56a7.75,7.75,0,0,0-1.95,2.78c-.23.72-1,1.5-.08,2.12a1.77,1.77,0,0,0,2.36-.6A159.57,159.57,0,0,0,167.43,176.3Z" transform="translate(-125.06 -103.67)"/><path d="M261.53,138.55c.17-.08.48-.12.64-.3,2.14-2.55,4.29-5.11,6.37-7.72a1.31,1.31,0,0,0-.1-1.22c-.32-.47-.79-.11-1.15.12a33.43,33.43,0,0,0-7.16,6.21,1.4,1.4,0,0,0-.13,1.93C260.36,138.05,260.71,138.6,261.53,138.55Z" transform="translate(-125.06 -103.67)"/></svg>