<svg width="48" height="48" viewBox="0 0 48 48" fill="none" xmlns="http://www.w3.org/2000/svg">
<path d="M18.9677 33.9353C22.716 33.9353 26.134 32.5476 28.7597 30.2714L42.4883 44L44 42.4883L30.2714 28.7597C32.5476 26.134 33.9353 22.716 33.9353 18.9677C33.9353 10.7012 27.2341 4 18.9677 4C10.7012 4 4 10.7012 4 18.9677C4 27.2341 10.7012 33.9353 18.9677 33.9353ZM18.9677 6.13824C26.042 6.13824 31.7971 11.8933 31.7971 18.9677C31.7971 26.042 26.042 31.7971 18.9677 31.7971C11.8933 31.7971 6.13824 26.042 6.13824 18.9677C6.13824 11.8933 11.8933 6.13824 18.9677 6.13824Z" fill="black"/>
</svg>
